<mxfile host="app.diagrams.net" modified="2024-04-27T21:17:24.972Z" agent="Mozilla/5.0 (Windows NT 10.0; Win64; x64) AppleWebKit/537.36 (KHTML, like Gecko) Chrome/121.0.0.0 Safari/537.36 OPR/107.0.0.0" version="24.3.1" etag="tCu7MbA2OjSDpUZN8PWx" type="github">
  <diagram name="Page-1" id="SKzCGLCZiwUaz9A79M4h">
    <mxGraphModel>
      <root>
        <mxCell id="0" />
        <mxCell id="1" parent="0" />
      </root>
    </mxGraphModel>
  </diagram>
</mxfile>
